<mxfile host="app.diagrams.net" agent="Mozilla/5.0 (Windows NT 10.0; Win64; x64) AppleWebKit/537.36 (KHTML, like Gecko) Chrome/128.0.0.0 Safari/537.36 OPR/114.0.0.0 (Edition Yx GX)" version="25.0.3">
  <diagram name="Страница — 1" id="qHSGpiCcACziC4tfkUo0">
    <mxGraphModel dx="751" dy="1151" grid="0" gridSize="10" guides="1" tooltips="1" connect="1" arrows="1" fold="1" page="1" pageScale="1" pageWidth="827" pageHeight="1169" math="0" shadow="0">
      <root>
        <mxCell id="0" />
        <mxCell id="1" parent="0" />
        <mxCell id="N_-C_UsVgb2Tda4g_fbF-2" value="" style="shape=umlLifeline;perimeter=lifelinePerimeter;whiteSpace=wrap;html=1;container=1;dropTarget=0;collapsible=0;recursiveResize=0;outlineConnect=0;portConstraint=eastwest;newEdgeStyle={&quot;curved&quot;:0,&quot;rounded&quot;:0};participant=umlActor;size=40;" parent="1" vertex="1">
          <mxGeometry x="210" y="550" width="20" height="480" as="geometry" />
        </mxCell>
        <mxCell id="N_-C_UsVgb2Tda4g_fbF-4" value="" style="html=1;points=[[0,0,0,0,5],[0,1,0,0,-5],[1,0,0,0,5],[1,1,0,0,-5]];perimeter=orthogonalPerimeter;outlineConnect=0;targetShapes=umlLifeline;portConstraint=eastwest;newEdgeStyle={&quot;curved&quot;:0,&quot;rounded&quot;:0};" parent="N_-C_UsVgb2Tda4g_fbF-2" vertex="1">
          <mxGeometry x="5" y="60" width="10" height="380" as="geometry" />
        </mxCell>
        <mxCell id="N_-C_UsVgb2Tda4g_fbF-5" value="База данных" style="shape=umlLifeline;perimeter=lifelinePerimeter;whiteSpace=wrap;html=1;container=1;dropTarget=0;collapsible=0;recursiveResize=0;outlineConnect=0;portConstraint=eastwest;newEdgeStyle={&quot;curved&quot;:0,&quot;rounded&quot;:0};" parent="1" vertex="1">
          <mxGeometry x="500" y="550" width="70" height="470" as="geometry" />
        </mxCell>
        <mxCell id="N_-C_UsVgb2Tda4g_fbF-17" value="" style="html=1;points=[[0,0,0,0,5],[0,1,0,0,-5],[1,0,0,0,5],[1,1,0,0,-5]];perimeter=orthogonalPerimeter;outlineConnect=0;targetShapes=umlLifeline;portConstraint=eastwest;newEdgeStyle={&quot;curved&quot;:0,&quot;rounded&quot;:0};" parent="N_-C_UsVgb2Tda4g_fbF-5" vertex="1">
          <mxGeometry x="30" y="120" width="10" height="300" as="geometry" />
        </mxCell>
        <mxCell id="N_-C_UsVgb2Tda4g_fbF-6" value="Система" style="shape=umlLifeline;perimeter=lifelinePerimeter;whiteSpace=wrap;html=1;container=1;dropTarget=0;collapsible=0;recursiveResize=0;outlineConnect=0;portConstraint=eastwest;newEdgeStyle={&quot;curved&quot;:0,&quot;rounded&quot;:0};" parent="1" vertex="1">
          <mxGeometry x="360" y="550" width="80" height="470" as="geometry" />
        </mxCell>
        <mxCell id="N_-C_UsVgb2Tda4g_fbF-11" value="" style="html=1;points=[[0,0,0,0,5],[0,1,0,0,-5],[1,0,0,0,5],[1,1,0,0,-5]];perimeter=orthogonalPerimeter;outlineConnect=0;targetShapes=umlLifeline;portConstraint=eastwest;newEdgeStyle={&quot;curved&quot;:0,&quot;rounded&quot;:0};" parent="N_-C_UsVgb2Tda4g_fbF-6" vertex="1">
          <mxGeometry x="35" y="59" width="10" height="381" as="geometry" />
        </mxCell>
        <mxCell id="N_-C_UsVgb2Tda4g_fbF-7" value="" style="html=1;points=[[0,0,0,0,5],[0,1,0,0,-5],[1,0,0,0,5],[1,1,0,0,-5]];perimeter=orthogonalPerimeter;outlineConnect=0;targetShapes=umlLifeline;portConstraint=eastwest;newEdgeStyle={&quot;curved&quot;:0,&quot;rounded&quot;:0};" parent="N_-C_UsVgb2Tda4g_fbF-6" vertex="1">
          <mxGeometry x="41" y="101" width="10" height="10" as="geometry" />
        </mxCell>
        <mxCell id="N_-C_UsVgb2Tda4g_fbF-13" value="Данные" style="html=1;verticalAlign=bottom;endArrow=open;dashed=1;endSize=8;curved=0;rounded=0;" parent="1" source="N_-C_UsVgb2Tda4g_fbF-17" target="N_-C_UsVgb2Tda4g_fbF-11" edge="1">
          <mxGeometry relative="1" as="geometry">
            <mxPoint x="510" y="719.76" as="sourcePoint" />
            <mxPoint x="410" y="710" as="targetPoint" />
            <Array as="points">
              <mxPoint x="490" y="710" />
              <mxPoint x="420" y="710" />
            </Array>
          </mxGeometry>
        </mxCell>
        <mxCell id="N_-C_UsVgb2Tda4g_fbF-15" value="Открытие карты" style="html=1;verticalAlign=bottom;endArrow=block;curved=0;rounded=0;" parent="1" target="N_-C_UsVgb2Tda4g_fbF-11" edge="1">
          <mxGeometry width="80" relative="1" as="geometry">
            <mxPoint x="220.02380952380963" y="679.9999999999998" as="sourcePoint" />
            <mxPoint x="390" y="680" as="targetPoint" />
          </mxGeometry>
        </mxCell>
        <mxCell id="N_-C_UsVgb2Tda4g_fbF-16" value="Запрос данных" style="html=1;verticalAlign=bottom;endArrow=block;curved=0;rounded=0;" parent="1" source="N_-C_UsVgb2Tda4g_fbF-11" edge="1">
          <mxGeometry width="80" relative="1" as="geometry">
            <mxPoint x="410.00380952380965" y="689.9999999999998" as="sourcePoint" />
            <mxPoint x="530" y="690" as="targetPoint" />
            <Array as="points">
              <mxPoint x="520" y="690" />
            </Array>
          </mxGeometry>
        </mxCell>
        <mxCell id="N_-C_UsVgb2Tda4g_fbF-18" value="Отображение карты" style="html=1;verticalAlign=bottom;endArrow=open;dashed=1;endSize=8;curved=0;rounded=0;" parent="1" source="N_-C_UsVgb2Tda4g_fbF-6" target="N_-C_UsVgb2Tda4g_fbF-4" edge="1">
          <mxGeometry relative="1" as="geometry">
            <mxPoint x="360" y="719.76" as="sourcePoint" />
            <mxPoint x="235" y="719.76" as="targetPoint" />
            <Array as="points">
              <mxPoint x="340" y="719.76" />
              <mxPoint x="320" y="719.76" />
              <mxPoint x="250" y="719.76" />
            </Array>
          </mxGeometry>
        </mxCell>
        <mxCell id="N_-C_UsVgb2Tda4g_fbF-19" value="Просмотр характеристики поля" style="html=1;verticalAlign=bottom;endArrow=block;curved=0;rounded=0;" parent="1" edge="1">
          <mxGeometry width="80" relative="1" as="geometry">
            <mxPoint x="225" y="750" as="sourcePoint" />
            <mxPoint x="395" y="750" as="targetPoint" />
          </mxGeometry>
        </mxCell>
        <mxCell id="N_-C_UsVgb2Tda4g_fbF-20" value="Запрос данных" style="html=1;verticalAlign=bottom;endArrow=block;curved=0;rounded=0;" parent="1" edge="1">
          <mxGeometry width="80" relative="1" as="geometry">
            <mxPoint x="405" y="760" as="sourcePoint" />
            <mxPoint x="530" y="760" as="targetPoint" />
            <Array as="points">
              <mxPoint x="515" y="760" />
            </Array>
          </mxGeometry>
        </mxCell>
        <mxCell id="N_-C_UsVgb2Tda4g_fbF-21" value="Данные" style="html=1;verticalAlign=bottom;endArrow=open;dashed=1;endSize=8;curved=0;rounded=0;" parent="1" source="N_-C_UsVgb2Tda4g_fbF-17" target="N_-C_UsVgb2Tda4g_fbF-11" edge="1">
          <mxGeometry relative="1" as="geometry">
            <mxPoint x="525" y="790" as="sourcePoint" />
            <mxPoint x="410" y="790" as="targetPoint" />
            <Array as="points">
              <mxPoint x="485" y="790" />
              <mxPoint x="415" y="790" />
            </Array>
          </mxGeometry>
        </mxCell>
        <mxCell id="N_-C_UsVgb2Tda4g_fbF-22" value="Сообщение с характеристиками" style="html=1;verticalAlign=bottom;endArrow=open;dashed=1;endSize=8;curved=0;rounded=0;" parent="1" source="N_-C_UsVgb2Tda4g_fbF-6" target="N_-C_UsVgb2Tda4g_fbF-4" edge="1">
          <mxGeometry relative="1" as="geometry">
            <mxPoint x="380" y="800" as="sourcePoint" />
            <mxPoint x="230" y="800" as="targetPoint" />
            <Array as="points">
              <mxPoint x="330" y="800" />
              <mxPoint x="260" y="800" />
            </Array>
          </mxGeometry>
        </mxCell>
        <mxCell id="N_-C_UsVgb2Tda4g_fbF-23" value="Запрос на изменение данных" style="html=1;verticalAlign=bottom;endArrow=block;curved=0;rounded=0;" parent="1" edge="1">
          <mxGeometry x="0.0028" width="80" relative="1" as="geometry">
            <mxPoint x="225" y="830" as="sourcePoint" />
            <mxPoint x="395" y="830" as="targetPoint" />
            <mxPoint as="offset" />
          </mxGeometry>
        </mxCell>
        <mxCell id="N_-C_UsVgb2Tda4g_fbF-24" value="Подтвержденный запрос" style="html=1;verticalAlign=bottom;endArrow=block;curved=0;rounded=0;" parent="1" source="N_-C_UsVgb2Tda4g_fbF-11" edge="1">
          <mxGeometry x="0.0028" width="80" relative="1" as="geometry">
            <mxPoint x="410" y="850" as="sourcePoint" />
            <mxPoint x="530" y="850" as="targetPoint" />
            <mxPoint as="offset" />
          </mxGeometry>
        </mxCell>
        <mxCell id="N_-C_UsVgb2Tda4g_fbF-25" value="Сообщение об изменении данных" style="html=1;verticalAlign=bottom;endArrow=open;dashed=1;endSize=8;curved=0;rounded=0;" parent="1" target="N_-C_UsVgb2Tda4g_fbF-4" edge="1">
          <mxGeometry x="0.1614" relative="1" as="geometry">
            <mxPoint x="530" y="880" as="sourcePoint" />
            <mxPoint x="230" y="880" as="targetPoint" />
            <Array as="points">
              <mxPoint x="470" y="880" />
              <mxPoint x="400" y="880" />
              <mxPoint x="380" y="880" />
            </Array>
            <mxPoint as="offset" />
          </mxGeometry>
        </mxCell>
        <mxCell id="N_-C_UsVgb2Tda4g_fbF-26" value="Запрос на формирование отчета" style="html=1;verticalAlign=bottom;endArrow=block;curved=0;rounded=0;" parent="1" edge="1">
          <mxGeometry x="0.0028" width="80" relative="1" as="geometry">
            <mxPoint x="225" y="909.9999999999998" as="sourcePoint" />
            <mxPoint x="395" y="909.9999999999998" as="targetPoint" />
            <mxPoint as="offset" />
          </mxGeometry>
        </mxCell>
        <mxCell id="N_-C_UsVgb2Tda4g_fbF-27" value="Запрос данных" style="html=1;verticalAlign=bottom;endArrow=block;curved=0;rounded=0;" parent="1" edge="1">
          <mxGeometry width="80" relative="1" as="geometry">
            <mxPoint x="405" y="920" as="sourcePoint" />
            <mxPoint x="530" y="920" as="targetPoint" />
            <Array as="points">
              <mxPoint x="520" y="920" />
            </Array>
          </mxGeometry>
        </mxCell>
        <mxCell id="N_-C_UsVgb2Tda4g_fbF-28" value="Данные" style="html=1;verticalAlign=bottom;endArrow=open;dashed=1;endSize=8;curved=0;rounded=0;" parent="1" source="N_-C_UsVgb2Tda4g_fbF-17" target="N_-C_UsVgb2Tda4g_fbF-11" edge="1">
          <mxGeometry relative="1" as="geometry">
            <mxPoint x="520" y="940" as="sourcePoint" />
            <mxPoint x="410" y="940" as="targetPoint" />
            <Array as="points">
              <mxPoint x="490" y="940" />
              <mxPoint x="420" y="940" />
            </Array>
          </mxGeometry>
        </mxCell>
        <mxCell id="N_-C_UsVgb2Tda4g_fbF-29" value="Сформированный отчет" style="html=1;verticalAlign=bottom;endArrow=open;dashed=1;endSize=8;curved=0;rounded=0;" parent="1" source="N_-C_UsVgb2Tda4g_fbF-6" target="N_-C_UsVgb2Tda4g_fbF-4" edge="1">
          <mxGeometry x="-0.0012" relative="1" as="geometry">
            <mxPoint x="380" y="950" as="sourcePoint" />
            <mxPoint x="250" y="950" as="targetPoint" />
            <Array as="points">
              <mxPoint x="335" y="950" />
              <mxPoint x="265" y="950" />
            </Array>
            <mxPoint as="offset" />
          </mxGeometry>
        </mxCell>
        <mxCell id="N_-C_UsVgb2Tda4g_fbF-30" value="Завершение работы" style="html=1;verticalAlign=bottom;endArrow=block;curved=0;rounded=0;entryX=0;entryY=1;entryDx=0;entryDy=-5;entryPerimeter=0;" parent="1" source="N_-C_UsVgb2Tda4g_fbF-4" target="N_-C_UsVgb2Tda4g_fbF-11" edge="1">
          <mxGeometry x="0.0028" width="80" relative="1" as="geometry">
            <mxPoint x="230" y="979.9999999999998" as="sourcePoint" />
            <mxPoint x="390" y="980" as="targetPoint" />
            <mxPoint as="offset" />
          </mxGeometry>
        </mxCell>
        <mxCell id="N_-C_UsVgb2Tda4g_fbF-8" value="Авторизация" style="html=1;align=left;spacingLeft=2;endArrow=block;rounded=0;edgeStyle=orthogonalEdgeStyle;curved=0;rounded=0;" parent="1" source="N_-C_UsVgb2Tda4g_fbF-4" edge="1">
          <mxGeometry x="-0.1175" y="10" relative="1" as="geometry">
            <mxPoint x="240" y="599.9985714285715" as="sourcePoint" />
            <Array as="points">
              <mxPoint x="352" y="620" />
              <mxPoint x="352" y="620" />
            </Array>
            <mxPoint x="395" y="620" as="targetPoint" />
            <mxPoint as="offset" />
          </mxGeometry>
        </mxCell>
        <mxCell id="NYXWeP0uA46EGkdsU6bP-1" value="Проверка профиля" style="html=1;verticalAlign=bottom;endArrow=block;curved=0;rounded=0;entryX=1;entryY=0;entryDx=0;entryDy=5;entryPerimeter=0;" edge="1" parent="1" target="N_-C_UsVgb2Tda4g_fbF-7">
          <mxGeometry x="-0.2844" y="16" width="80" relative="1" as="geometry">
            <mxPoint x="405" y="619" as="sourcePoint" />
            <mxPoint x="570" y="619" as="targetPoint" />
            <Array as="points">
              <mxPoint x="444" y="619" />
              <mxPoint x="444" y="656" />
            </Array>
            <mxPoint y="-2" as="offset" />
          </mxGeometry>
        </mxCell>
        <mxCell id="NYXWeP0uA46EGkdsU6bP-2" value="Сообщение об авторизации" style="html=1;verticalAlign=bottom;endArrow=open;dashed=1;endSize=8;curved=0;rounded=0;" edge="1" parent="1" target="N_-C_UsVgb2Tda4g_fbF-4">
          <mxGeometry relative="1" as="geometry">
            <mxPoint x="397" y="653" as="sourcePoint" />
            <mxPoint x="233" y="653" as="targetPoint" />
            <Array as="points">
              <mxPoint x="338" y="653" />
              <mxPoint x="268" y="653" />
            </Array>
          </mxGeometry>
        </mxCell>
        <mxCell id="NYXWeP0uA46EGkdsU6bP-3" value="Функции системы" style="html=1;whiteSpace=wrap;" vertex="1" parent="1">
          <mxGeometry x="104" y="1789" width="110" height="50" as="geometry" />
        </mxCell>
        <mxCell id="NYXWeP0uA46EGkdsU6bP-4" value="Основные" style="html=1;whiteSpace=wrap;" vertex="1" parent="1">
          <mxGeometry x="224" y="1789" width="110" height="50" as="geometry" />
        </mxCell>
        <mxCell id="NYXWeP0uA46EGkdsU6bP-5" value="Анализ данных" style="html=1;whiteSpace=wrap;" vertex="1" parent="1">
          <mxGeometry x="342" y="1789" width="110" height="50" as="geometry" />
        </mxCell>
        <mxCell id="NYXWeP0uA46EGkdsU6bP-6" value="Сравнение с прошлогодовыми данными" style="html=1;whiteSpace=wrap;" vertex="1" parent="1">
          <mxGeometry x="460" y="1789" width="110" height="50" as="geometry" />
        </mxCell>
        <mxCell id="NYXWeP0uA46EGkdsU6bP-7" value="Обработка данных" style="html=1;whiteSpace=wrap;" vertex="1" parent="1">
          <mxGeometry x="460" y="1732" width="110" height="50" as="geometry" />
        </mxCell>
        <mxCell id="NYXWeP0uA46EGkdsU6bP-8" value="Прогнозирование" style="html=1;whiteSpace=wrap;" vertex="1" parent="1">
          <mxGeometry x="460" y="1846" width="110" height="50" as="geometry" />
        </mxCell>
        <mxCell id="NYXWeP0uA46EGkdsU6bP-9" value="Создание экземпляра карты" style="html=1;whiteSpace=wrap;" vertex="1" parent="1">
          <mxGeometry x="460" y="1634" width="110" height="50" as="geometry" />
        </mxCell>
        <mxCell id="NYXWeP0uA46EGkdsU6bP-10" value="Инициализация ЦМР" style="html=1;whiteSpace=wrap;" vertex="1" parent="1">
          <mxGeometry x="460" y="1577" width="110" height="50" as="geometry" />
        </mxCell>
        <mxCell id="NYXWeP0uA46EGkdsU6bP-11" value="Добавление слоев на карту" style="html=1;whiteSpace=wrap;" vertex="1" parent="1">
          <mxGeometry x="460" y="1522" width="110" height="50" as="geometry" />
        </mxCell>
        <mxCell id="NYXWeP0uA46EGkdsU6bP-12" value="Получение данных связан. с сельск. хозяйством" style="html=1;whiteSpace=wrap;" vertex="1" parent="1">
          <mxGeometry x="460" y="1467" width="110" height="50" as="geometry" />
        </mxCell>
        <mxCell id="NYXWeP0uA46EGkdsU6bP-13" value="Загрузка библиотек карт" style="html=1;whiteSpace=wrap;" vertex="1" parent="1">
          <mxGeometry x="460" y="1409" width="110" height="50" as="geometry" />
        </mxCell>
        <mxCell id="NYXWeP0uA46EGkdsU6bP-14" value="Модуль отображения карт" style="html=1;whiteSpace=wrap;" vertex="1" parent="1">
          <mxGeometry x="342" y="1522" width="110" height="50" as="geometry" />
        </mxCell>
        <mxCell id="NYXWeP0uA46EGkdsU6bP-15" value="Настройка системы" style="html=1;whiteSpace=wrap;" vertex="1" parent="1">
          <mxGeometry x="460" y="1937" width="110" height="50" as="geometry" />
        </mxCell>
        <mxCell id="NYXWeP0uA46EGkdsU6bP-16" value="Мониторинг состояния системы" style="html=1;whiteSpace=wrap;" vertex="1" parent="1">
          <mxGeometry x="460" y="1993" width="110" height="50" as="geometry" />
        </mxCell>
        <mxCell id="NYXWeP0uA46EGkdsU6bP-17" value="Резервное копирование данных" style="html=1;whiteSpace=wrap;" vertex="1" parent="1">
          <mxGeometry x="460" y="2049" width="110" height="50" as="geometry" />
        </mxCell>
        <mxCell id="NYXWeP0uA46EGkdsU6bP-18" value="Управление системой" style="html=1;whiteSpace=wrap;" vertex="1" parent="1">
          <mxGeometry x="342" y="1993" width="110" height="50" as="geometry" />
        </mxCell>
        <mxCell id="NYXWeP0uA46EGkdsU6bP-19" value="Отчеты" style="html=1;whiteSpace=wrap;" vertex="1" parent="1">
          <mxGeometry x="460" y="2146" width="110" height="50" as="geometry" />
        </mxCell>
        <mxCell id="NYXWeP0uA46EGkdsU6bP-20" value="Интерфейс пользователя" style="html=1;whiteSpace=wrap;" vertex="1" parent="1">
          <mxGeometry x="460" y="2203" width="110" height="50" as="geometry" />
        </mxCell>
        <mxCell id="NYXWeP0uA46EGkdsU6bP-21" value="Вывод и визуализация данных" style="html=1;whiteSpace=wrap;" vertex="1" parent="1">
          <mxGeometry x="342" y="2171" width="110" height="50" as="geometry" />
        </mxCell>
      </root>
    </mxGraphModel>
  </diagram>
</mxfile>
